<?xml version="1.0" encoding="iso-8859-1"?>
<!-- Generator: Adobe Illustrator 16.0.0, SVG Export Plug-In . SVG Version: 6.00 Build 0)  -->
<!DOCTYPE svg PUBLIC "-//W3C//DTD SVG 1.1//EN" "http://www.w3.org/Graphics/SVG/1.1/DTD/svg11.dtd">
<svg version="1.1" id="Capa_1" xmlns="http://www.w3.org/2000/svg" xmlns:xlink="http://www.w3.org/1999/xlink" x="0px" y="0px"
	 width="35.27px" height="28.966px" viewBox="0 0 35.27 28.966" style="enable-background:new 0 0 35.27 28.966;"
	 xml:space="preserve">
<circle cx="13.193" cy="3.576" r="0.973"/>
<path d="M10.27,2.604c-0.535,0-0.971,0.434-0.971,0.973c0,0.537,0.436,0.973,0.971,0.973c0.539,0,0.975-0.436,0.975-0.973
	C11.244,3.037,10.809,2.604,10.27,2.604z"/>
<path d="M16.178,2.604c-0.539,0-0.977,0.434-0.977,0.973c0,0.537,0.438,0.973,0.977,0.973c0.535,0,0.973-0.436,0.973-0.973
	C17.15,3.037,16.713,2.604,16.178,2.604z"/>
<rect x="18.549" y="3.107" width="13.639" height="0.975"/>
<path d="M33.324,0H9.949C8.871,0,8,0.871,8,1.945V15.91c0.545,0,1.209,0,1.949,0V4.895h23.375v16.533H27.49
	c0.371,0.801,0.605,1.482,0.605,1.482c-0.141,0.164-0.289,0.311-0.436,0.467h5.664c1.072,0,1.945-0.875,1.945-1.949V1.945
	C35.27,0.871,34.396,0,33.324,0z M11.408,3.408c-0.533,0-0.969-0.432-0.969-0.971c0-0.543,0.436-0.973,0.969-0.973
	c0.539,0,0.975,0.43,0.975,0.973C12.383,2.977,11.947,3.408,11.408,3.408z M14.332,3.408c-0.539,0-0.975-0.432-0.975-0.971
	c0-0.543,0.436-0.973,0.975-0.973c0.535,0,0.975,0.43,0.975,0.973C15.307,2.977,14.867,3.408,14.332,3.408z M17.314,3.408
	c-0.537,0-0.975-0.432-0.975-0.971c0-0.543,0.438-0.973,0.975-0.973s0.973,0.43,0.973,0.973C18.287,2.977,17.852,3.408,17.314,3.408
	z"/>
<path d="M26.352,22.566c-0.326-0.701-0.758-1.49-1.244-2.008c0,0-0.5-0.445-0.752-0.498c-0.25-0.057-0.25-0.057-0.379-0.031
	c-0.66,0.119-1.508,1.502-2.908,2.537h-7.064c-0.443-0.398-0.84-0.842-1.156-1.348h3.906c0,0,1.117,0.074,1.117-0.818
	c0-0.895,0-2.236,0-2.236s0.07-1.117-1.117-1.117c-0.385,0-2.533,0-4.848,0h-0.109H11.01c-0.758,0-1.504,0-2.199,0
	c-0.74,0-1.404,0-1.949,0c-0.814,0-1.354,0-1.354,0v9.535c0,0,7.598,2.381,10.277,2.381c0,0,6.277,0.266,10.734-4.447
	c0.146-0.156,0.295-0.299,0.438-0.469C26.957,24.047,26.725,23.367,26.352,22.566z"/>
<rect y="15.857" width="3.871" height="13.105"/>
<g>
</g>
<g>
</g>
<g>
</g>
<g>
</g>
<g>
</g>
<g>
</g>
<g>
</g>
<g>
</g>
<g>
</g>
<g>
</g>
<g>
</g>
<g>
</g>
<g>
</g>
<g>
</g>
<g>
</g>
</svg>
